<svg width="228" height="182" viewBox="0 0 228 182" fill="none" xmlns="http://www.w3.org/2000/svg">
<g clip-path="url(#clip0_42_182)">
<path d="M139.935 0.425783C133.879 -1.31601 127.573 2.20313 125.828 8.2461L80.2275 167.496C78.4819 173.539 82.0088 179.831 88.065 181.573C94.1213 183.314 100.427 179.795 102.173 173.752L147.772 14.5023C149.518 8.45938 145.991 2.16758 139.935 0.425783ZM168.649 43.1176C164.196 47.5609 164.196 54.777 168.649 59.2203L200.462 90.9992L168.613 122.778C164.16 127.221 164.16 134.438 168.613 138.881C173.066 143.324 180.298 143.324 184.751 138.881L224.651 99.0684C229.104 94.625 229.104 87.409 224.651 82.9656L184.751 43.1531C180.298 38.7098 173.066 38.7098 168.613 43.1531L168.649 43.1176ZM59.3869 43.1176C54.9338 38.6742 47.7019 38.6742 43.2488 43.1176L3.34875 82.9301C-1.10437 87.3734 -1.10437 94.5895 3.34875 99.0328L43.2488 138.845C47.7019 143.289 54.9338 143.289 59.3869 138.845C63.84 134.402 63.84 127.186 59.3869 122.743L27.5381 90.9992L59.3869 59.2203C63.84 54.777 63.84 47.5609 59.3869 43.1176Z" fill="#1C2305"/>
</g>
<defs>
<clipPath id="clip0_42_182">
<rect width="228" height="182" fill="white" transform="translate(0 -0.000488281)"/>
</clipPath>
</defs>
</svg>
